<svg xmlns="http://www.w3.org/2000/svg" viewBox="0 0 309.45 352.31"><defs><style>.cls-1{fill:#fff;}</style></defs><title>Ativo 2</title><g id="Camada_2" data-name="Camada 2"><g id="Camada_1-2" data-name="Camada 1"><path d="M137.9,312.5l0,1.4h0a53.07,53.07,0,0,1-17.33.78,78.61,78.61,0,0,1-17-3.89l-4.08-1.56-1-.39-1-.46-2-.93-2-.92-1-.46-.95-.53-3.82-2.13a41.8,41.8,0,0,1-3.72-2.3l-3.66-2.39c-2.36-1.7-4.66-3.5-7-5.25l0,0,0,0A253.75,253.75,0,0,1,45.8,262.63c-1.07-1.35-2.06-2.77-3.06-4.18s-2-2.8-3-4.24c-1.88-2.89-3.83-5.75-5.57-8.74s-3.47-6-5.15-9-3.18-6.15-4.58-9.32a152.28,152.28,0,0,1-12.13-39.66,132.35,132.35,0,0,1-1.61-20.76c0-3.48.21-7,.56-10.43a69.25,69.25,0,0,1,1.78-10.39v.74c-1.47-6-3-12-4.41-18l-2-9.07-1-4.53-.84-4.57c-.55-3-1.11-6.09-1.63-9.14l-1.3-9.21-.32-2.3c-.1-.77-.16-1.54-.24-2.31L.91,82.87C.76,81.32.59,79.78.47,78.24L.24,73.58A144,144,0,0,1,2.76,36.42a186.18,186.18,0,0,1,5-18c2-5.88,4-11.7,5.78-17.55v0A1.28,1.28,0,0,1,14.8,0,39.51,39.51,0,0,1,30.45,4.71,76,76,0,0,1,43.8,13.82,126.82,126.82,0,0,1,55.43,24.89C59.1,28.78,62.58,32.82,66,37c6.71,8.29,13,16.9,19.06,25.62l9.08,13.1c1.53,2.17,3.06,4.34,4.65,6.45a52,52,0,0,0,5.09,6l-.43-.08a57.06,57.06,0,0,1,8.08-2.47,56,56,0,0,1,8.34-1.25,59.16,59.16,0,0,1,8.42,0,50.69,50.69,0,0,1,8.32,1.19,0,0,0,0,1,0,0v1.78l0-1.78,0,0a50.62,50.62,0,0,0-8.32-1,58.49,58.49,0,0,0-8.37.26,54.64,54.64,0,0,0-8.23,1.4,56,56,0,0,0-7.92,2.59h0a.4.4,0,0,1-.43-.08,53,53,0,0,1-5.3-6c-1.65-2.1-3.23-4.24-4.81-6.38L83.83,63.42c-6.21-8.61-12.54-17.14-19.31-25.29-3.4-4.06-6.9-8-10.57-11.83A127.72,127.72,0,0,0,42.38,15.54a73.82,73.82,0,0,0-13-8.66A38.14,38.14,0,0,0,14.66,2.56L16,1.66c-1.82,5.92-3.81,11.77-5.72,17.61A177.63,177.63,0,0,0,5.42,37,141.35,141.35,0,0,0,3.09,73.44L3.34,78c.12,1.53.3,3,.45,4.58l.47,4.57c.08.76.14,1.53.24,2.29l.33,2.28,1.32,9.11,1.65,9.06.81,4.54,1,4.51,1.92,9c1.37,6,2.89,12,4.32,17.94v0a1.59,1.59,0,0,1,0,.72,66.35,66.35,0,0,0-1.74,9.92c-.35,3.37-.56,6.76-.58,10.16A129.47,129.47,0,0,0,15,187.07a151.56,151.56,0,0,0,11.75,39.05c1.35,3.13,2.9,6.18,4.41,9.24s3.2,6,5,9,3.58,5.82,5.41,8.71c.93,1.43,1.93,2.82,2.9,4.23s1.93,2.82,3,4.18a251.89,251.89,0,0,0,27,30.91l0,0c2.27,1.76,4.5,3.59,6.81,5.32l3.57,2.43a43.14,43.14,0,0,0,3.63,2.34l3.73,2.18.93.54,1,.48,1.94.95,1.94,1,1,.47,1,.41,4,1.62a77.47,77.47,0,0,0,16.76,4.18,53.18,53.18,0,0,0,17.26-.32l0,0Z"/><path d="M38.91,181.9a96.57,96.57,0,0,1,11.69-8.8,77.09,77.09,0,0,1,13-6.83,36.62,36.62,0,0,1,14.69-3A19.32,19.32,0,0,1,85.93,165,17.71,17.71,0,0,1,92.07,170l.08.12v0a113.34,113.34,0,0,1,8.21,16.09c2.36,5.53,4.35,11.18,6.18,16.87s3.41,11.47,4.81,17.27S114,232,114.91,237.9c-1.62-5.74-3.29-11.45-5.07-17.13s-3.63-11.31-5.64-16.89-4.15-11.1-6.5-16.52a130.06,130.06,0,0,0-8-15.68l.1.13a15,15,0,0,0-5.08-4.18A17,17,0,0,0,78.2,166a36.6,36.6,0,0,0-13.79,2.34,88.63,88.63,0,0,0-13.12,5.94A132.89,132.89,0,0,0,38.91,181.9Z"/><path d="M30.7,6.43c2.93,3.39,5.72,6.89,8.47,10.43s5.47,7.1,8.07,10.75c5.24,7.27,10.2,14.76,14.81,22.47,2.27,3.88,4.46,7.81,6.53,11.81S72.5,70,74.17,74.23a77.46,77.46,0,0,1,4,13.07,33.25,33.25,0,0,1,.17,14,1.39,1.39,0,0,1-.53.81h0a58.11,58.11,0,0,1-8.43,5.15A79.86,79.86,0,0,1,60.28,111c-3.05,1.1-6.08,2.09-9,3.29a32.39,32.39,0,0,0-8,4.71,35.17,35.17,0,0,0-6.35,6.87A67.14,67.14,0,0,0,32.06,134a146.63,146.63,0,0,0-7.15,17.87,122.86,122.86,0,0,1,6-18.4,57.89,57.89,0,0,1,4.56-8.63,35.39,35.39,0,0,1,6.42-7.52,34.83,34.83,0,0,1,8.41-5.29c3-1.37,6.07-2.43,9.06-3.56a78.41,78.41,0,0,0,8.69-3.79,61.51,61.51,0,0,0,8-5l-.55.81a30.61,30.61,0,0,0-.29-12.66,76.71,76.71,0,0,0-3.77-12.59c-1.6-4.12-3.44-8.15-5.36-12.15S62,55.24,59.84,51.35C55.49,43.59,50.78,36,45.9,28.53,43.44,24.8,41,21.06,38.45,17.39S33.33,10.06,30.7,6.43Z"/><path d="M108.91,287.9a68.4,68.4,0,0,0,7.67.65,51,51,0,0,0,7.63-.28,26,26,0,0,0,7.22-1.78,12,12,0,0,0,5.51-4.27l-.21.68c-.14-5-.16-10-.24-15l1.6,1.4a21.12,21.12,0,0,1-6.3-.2,12,12,0,0,1-3.15-1,7.85,7.85,0,0,1-2.82-2.19,9,9,0,0,1-1.61-3.12,11.52,11.52,0,0,1-.29-3.29,9.23,9.23,0,0,0-.27-2.53,9.68,9.68,0,0,0-1-2.31l.12.16a6,6,0,0,0-4.41-2.44c-1.83-.22-3.92.24-6.34,0-.3,0-.61-.07-.92-.13l-.47-.1a4.11,4.11,0,0,1-.59-.2,3.44,3.44,0,0,1-1.73-1.8,7.39,7.39,0,0,1-.35-3.79,20.18,20.18,0,0,1,.72-3.33,5.79,5.79,0,0,1,6-4l3.18.23,6.36.48c4.23.34,8.47.7,12.7,1.15-4.25.11-8.5.15-12.75.16H114.6a3.82,3.82,0,0,0-2.36.72,3.53,3.53,0,0,0-1.34,2,17.85,17.85,0,0,0-.48,2.91,5.53,5.53,0,0,0,.25,2.49.78.78,0,0,0,.42.44l.17.05.31.06c.21,0,.43.06.66.07,1.83.12,4-.4,6.38-.23a9,9,0,0,1,3.61,1,9.87,9.87,0,0,1,2.84,2.43h0a.83.83,0,0,1,.11.15,13.51,13.51,0,0,1,1.34,3.05,12.33,12.33,0,0,1,.39,3.28,10.17,10.17,0,0,0,.2,2.55,6.19,6.19,0,0,0,1.05,2.06,6.94,6.94,0,0,0,4.2,2.17,19.84,19.84,0,0,0,5.39.24h.08a1.41,1.41,0,0,1,1.51,1.28v.14c-.08,5-.1,10-.24,15V283a1.06,1.06,0,0,1-.21.63,14,14,0,0,1-6.73,4.77,27.59,27.59,0,0,1-7.82,1.41,48.32,48.32,0,0,1-7.81-.36A54.46,54.46,0,0,1,108.91,287.9Z"/><path d="M228.32,188.8l-11.41,26.1s-1,19-3,28-10,23-10,23,4,22,3,29c0,15-13,23-23,24-4.44.44-11.63-4.24-18.26-9.58l2.26,1.58-18,4-.5-228.5s31-7,67,21c18,11,23,17,23,17s11,3,14,7,52,117,52,117,4,9,2,18-35,60-58,60l-1.5,24.5s-36-17-29-84c5-19,16-106,5-127"/><path d="M228.46,188.86,217.11,215l0-.07q-.36,6.66-1,13.3c-.42,4.43-.88,8.86-1.68,13.25a39.23,39.23,0,0,1-1.78,6.47c-.75,2.1-1.6,4.16-2.5,6.2-1.83,4.07-3.83,8-6,11.94l0-.24c.86,4.81,1.62,9.62,2.25,14.46q.47,3.63.77,7.28a40.4,40.4,0,0,1,0,7.38v-.05l-.09,1.82,0,.91-.14.9-.31,1.8-.49,1.76A21.8,21.8,0,0,1,203,308.6a25.14,25.14,0,0,1-5.1,5.2,29.93,29.93,0,0,1-6.31,3.62,26.66,26.66,0,0,1-7,1.89,8.91,8.91,0,0,1-3.74-.26,19,19,0,0,1-3.44-1.3,45.83,45.83,0,0,1-6.24-3.68c-2-1.37-3.91-2.82-5.79-4.32a.55.55,0,0,1,.66-.88l2.27,1.57a.56.56,0,0,1,.14.77.57.57,0,0,1-.34.23l-18,4a.6.6,0,0,1-.71-.45.59.59,0,0,1,0-.13l-.94-228.5v0a1,1,0,0,1,.81-1,63.26,63.26,0,0,1,18.32-.28,91.9,91.9,0,0,1,17.79,4c2.83,1.09,5.74,2,8.47,3.35,1.38.64,2.8,1.21,4.14,1.91l4,2.14c.67.36,1.35.71,2,1.09l1.93,1.2,3.86,2.41c2.52,1.69,4.94,3.53,7.41,5.29l-.11-.07q3.07,1.88,6.1,3.83c2,1.32,4,2.66,6,4.06s3.89,2.83,5.78,4.35a48.55,48.55,0,0,1,5.48,5l-.62-.4a59.43,59.43,0,0,1,7.49,2.65,33,33,0,0,1,3.61,1.82,12.63,12.63,0,0,1,3.35,2.68,4.26,4.26,0,0,1,.6.92l.52.93c.37.64.61,1.2.91,1.8l1.69,3.52,3.26,7.07c4.31,9.43,8.53,18.89,12.74,28.35q12.62,28.41,25.06,56.89l6.2,14.25,1.55,3.55a31,31,0,0,1,1.34,3.86,36.32,36.32,0,0,1,1.36,8,27.93,27.93,0,0,1-.07,4.09c-.08.69-.13,1.37-.27,2.05l-.19,1c-.08.35-.19.72-.29,1.07a49.28,49.28,0,0,1-3.43,7.28c-2.55,4.59-5.37,9-8.34,13.28a170.42,170.42,0,0,1-20,24.12,80,80,0,0,1-12.21,10.05,39.33,39.33,0,0,1-7.13,3.75,22.67,22.67,0,0,1-8.1,1.69l1.48-1.38L249.31,351V351a1.36,1.36,0,0,1-1.45,1.27,1.45,1.45,0,0,1-.54-.15,33,33,0,0,1-5.13-3.39,50.39,50.39,0,0,1-4.5-4,60.45,60.45,0,0,1-7.52-9.31,75.88,75.88,0,0,1-9.59-21.72A108.47,108.47,0,0,1,217,290.36a150.77,150.77,0,0,1,.84-23.57l0-.16c1.31-5.1,2.24-10.37,3.13-15.62s1.65-10.53,2.35-15.82q2.13-15.87,3.4-31.83c.85-10.64,1.46-21.3,1.41-32,0-5.33-.21-10.67-.76-16s-1.36-10.64-3.64-15.45h0a.15.15,0,0,1,.08-.2.13.13,0,0,1,.19.07c2.4,4.85,3.28,10.23,4,15.53s.91,10.67,1,16c.23,10.7-.2,21.4-.87,32.08s-1.75,21.33-3,31.95q-1,8-2.19,15.91c-.84,5.3-1.69,10.57-3,15.84l0-.15a154.09,154.09,0,0,0-.61,23.23A106.44,106.44,0,0,0,223,313.07,73.37,73.37,0,0,0,232.36,334a57.47,57.47,0,0,0,7.24,8.84,47.64,47.64,0,0,0,4.27,3.76,30.19,30.19,0,0,0,4.64,3l-2,1.18,1.42-24.5a1.46,1.46,0,0,1,1.44-1.39h0a20.24,20.24,0,0,0,7-1.54,35.23,35.23,0,0,0,6.59-3.47,76.48,76.48,0,0,0,11.74-9.67,167,167,0,0,0,19.61-23.68,152.48,152.48,0,0,0,8.18-13,46.92,46.92,0,0,0,3.21-6.75c.07-.27.16-.52.22-.8l.16-.89a18.09,18.09,0,0,0,.24-1.8,25,25,0,0,0,.07-3.67,33.8,33.8,0,0,0-1.25-7.31,29.1,29.1,0,0,0-1.21-3.48l-1.55-3.57L296.24,231l-24.84-57c-4.17-9.48-8.34-19-12.6-28.39l-3.22-7.06-1.66-3.48c-.27-.57-.55-1.2-.83-1.68l-.41-.77a2.69,2.69,0,0,0-.45-.71,10.53,10.53,0,0,0-2.69-2.14,29.52,29.52,0,0,0-3.32-1.69,56.6,56.6,0,0,0-7.13-2.56,1.26,1.26,0,0,1-.61-.39h0A32.42,32.42,0,0,0,236,122.8c-.88-.77-1.77-1.54-2.69-2.28-1.83-1.48-3.72-2.91-5.65-4.28s-3.9-2.72-5.88-4-4-2.56-6-3.82l-.05,0-.06,0c-2.42-1.73-4.78-3.55-7.24-5.21l-3.78-2.38-1.89-1.19c-.64-.37-1.31-.71-2-1.07l-3.93-2.11c-1.31-.69-2.69-1.25-4-1.88-2.67-1.31-5.5-2.23-8.27-3.31a89.69,89.69,0,0,0-17.33-3.94L165,87l-2.21-.14c-1.48-.12-3-.13-4.44-.14a51.41,51.41,0,0,0-8.75.72l.81-1,.06,228.5-.73-.58,18-4-.2,1-2.26-1.58.66-.87c1.86,1.49,3.75,2.94,5.7,4.29a45.29,45.29,0,0,0,6.09,3.63c2.11,1,4.37,1.86,6.61,1.51a25.91,25.91,0,0,0,6.79-1.8,29.34,29.34,0,0,0,6.12-3.47,24.34,24.34,0,0,0,4.94-5,21.16,21.16,0,0,0,3.18-6.24l.49-1.69.29-1.73.15-.87.05-.88.1-1.76v-.06a39.48,39.48,0,0,0,0-7.21c-.18-2.42-.44-4.83-.73-7.25q-.92-7.23-2.18-14.42a.35.35,0,0,1,0-.23c2.18-3.86,4.2-7.82,6-11.86.91-2,1.76-4.06,2.51-6.14a38.15,38.15,0,0,0,1.79-6.37c.81-4.35,1.3-8.77,1.73-13.19s.76-8.85,1-13.29c0,0,0,0,0-.07l11.47-26.07a.15.15,0,0,1,.2-.08A.16.16,0,0,1,228.46,188.86Z"/><path class="cls-1" d="M151.37,247.25a42.18,42.18,0,0,1,8.14-1.43,17.94,17.94,0,0,1,8.37,1,8.1,8.1,0,0,1,1.91,1.26,6.56,6.56,0,0,1,1.39,1.9,14.17,14.17,0,0,1,1,4.26,35.1,35.1,0,0,1-.27,8.45,45.12,45.12,0,0,1-2,8.22,27,27,0,0,1-4,7.56,21.89,21.89,0,0,1-6.41,5.75,16.93,16.93,0,0,1-8.12,2.29.14.14,0,0,1-.16-.15.16.16,0,0,1,.11-.14,23.34,23.34,0,0,0,7-3.74,25,25,0,0,0,5.15-5.75,42.41,42.41,0,0,0,3.67-6.89,37.76,37.76,0,0,0,2.38-7.56,32.78,32.78,0,0,0,.68-7.88,12.46,12.46,0,0,0-.66-3.73,4.83,4.83,0,0,0-.93-1.43,6.91,6.91,0,0,0-1.46-1.08,17,17,0,0,0-7.67-1.45,45.93,45.93,0,0,0-8.09.8h0a.14.14,0,0,1-.17-.12A.15.15,0,0,1,151.37,247.25Z"/><path class="cls-1" d="M167.36,262.54a11.6,11.6,0,0,0-6.54.15,4.17,4.17,0,0,0-2.26,1.61,2.27,2.27,0,0,0,.32,2.19,5.66,5.66,0,0,0,2,1.92,7.87,7.87,0,0,0,2.46.94,9,9,0,0,0,5.93-1.06.17.17,0,0,1,.22.07.17.17,0,0,1,0,.14,6.78,6.78,0,0,1-6.46,3.84,6.54,6.54,0,0,1-3.9-1.52,9.1,9.1,0,0,1-2.43-3.27,5.68,5.68,0,0,1-.5-2.1,3.5,3.5,0,0,1,.69-2.27,5.8,5.8,0,0,1,3.5-1.94,12,12,0,0,1,7,1,.14.14,0,0,1,.07.2A.15.15,0,0,1,167.36,262.54Z"/><path class="cls-1" d="M179.78,181.82a64.21,64.21,0,0,1,6.83-9.61,30.63,30.63,0,0,1,4.36-4.14,14.7,14.7,0,0,1,2.69-1.63,7.1,7.1,0,0,1,1.57-.55,13.58,13.58,0,0,1,1.48-.33c1.88-.39,3.8-.87,5.83-1.18a14.06,14.06,0,0,1,6.35.44,11.8,11.8,0,0,1,5.3,3.63,15.41,15.41,0,0,1,2.85,5.37.16.16,0,0,1-.1.2.14.14,0,0,1-.15,0h0a33.31,33.31,0,0,0-4.06-4,12.06,12.06,0,0,0-4.66-2.25c-3.29-.76-7-.3-11,.22a11.28,11.28,0,0,0-1.39.2,4.55,4.55,0,0,0-1.21.33,11.31,11.31,0,0,0-2.4,1.22,28,28,0,0,0-4.4,3.57A69.41,69.41,0,0,0,180,182h0a.15.15,0,0,1-.21,0A.16.16,0,0,1,179.78,181.82Z"/></g></g></svg>