<svg xmlns="http://www.w3.org/2000/svg" viewBox="0 0 468 468"><defs><style>.cls-1{fill:#fffa8a;}.cls-2{fill:#fff;}</style></defs><title>Ativo 1</title><g id="Camada_2" data-name="Camada 2"><g id="Camada_1-2" data-name="Camada 1"><circle class="cls-1" cx="234" cy="234" r="234"/><path d="M230,370.61l0,1.39,0,0a53.27,53.27,0,0,1-17.32.77,78.59,78.59,0,0,1-17-3.88l-4.08-1.57-1-.39-1-.46-2-.92-2-.93-1-.46-1-.53-3.81-2.13c-1.3-.67-2.5-1.5-3.72-2.29l-3.66-2.39c-2.36-1.71-4.66-3.51-7-5.26l0,0,0,0a253.66,253.66,0,0,1-27.59-30.8c-1.07-1.36-2.06-2.77-3.06-4.18s-2-2.81-3-4.24c-1.88-2.9-3.83-5.76-5.58-8.75s-3.46-6-5.14-9-3.18-6.15-4.59-9.32a152.71,152.71,0,0,1-12.12-39.67,132.25,132.25,0,0,1-1.61-20.76c0-3.48.21-7,.56-10.43A69.12,69.12,0,0,1,105.15,204v.73c-1.46-6-3-12-4.41-18l-2-9.06-1-4.54-.84-4.57c-.55-3-1.11-6.09-1.63-9.14l-1.3-9.2-.32-2.3c-.1-.77-.16-1.55-.24-2.32L93,141c-.14-1.54-.32-3.08-.43-4.63l-.24-4.65a144.44,144.44,0,0,1,2.53-37.16,185.58,185.58,0,0,1,5-18c2-5.87,4-11.69,5.78-17.55v0a1.26,1.26,0,0,1,1.29-.88,39.5,39.5,0,0,1,15.65,4.7,76.55,76.55,0,0,1,13.35,9.11A128.19,128.19,0,0,1,147.52,83c3.66,3.9,7.15,7.94,10.52,12.07,6.71,8.29,13,16.9,19.06,25.63l9.08,13.1c1.53,2.17,3.06,4.33,4.65,6.44a52.94,52.94,0,0,0,5.09,6l-.43-.08a55.79,55.79,0,0,1,8.08-2.47,54.69,54.69,0,0,1,8.34-1.25,56.35,56.35,0,0,1,8.42,0,49.63,49.63,0,0,1,8.32,1.18l0,0v1.78l0-1.78,0,0a49.56,49.56,0,0,0-8.32-1A58.45,58.45,0,0,0,212,143a56.15,56.15,0,0,0-16.15,4h0a.42.42,0,0,1-.43-.08,53.92,53.92,0,0,1-5.3-6c-1.65-2.09-3.23-4.24-4.81-6.38l-9.33-12.92c-6.21-8.62-12.54-17.14-19.31-25.29-3.4-4.06-6.9-8-10.57-11.84a129.05,129.05,0,0,0-11.57-10.75,73.88,73.88,0,0,0-13-8.67,38.31,38.31,0,0,0-14.68-4.32l1.29-.9c-1.83,5.92-3.81,11.77-5.72,17.62a178.19,178.19,0,0,0-4.81,17.7,141.41,141.41,0,0,0-2.33,36.46l.25,4.59c.12,1.52.3,3.05.45,4.57l.46,4.58c.09.76.15,1.52.25,2.28l.33,2.28L98.24,159,99.89,168l.81,4.53,1,4.51,1.92,9c1.37,6,2.89,12,4.32,17.95h0a1.46,1.46,0,0,1,0,.72,66.26,66.26,0,0,0-1.74,9.93,100.88,100.88,0,0,0-.58,10.15,129.38,129.38,0,0,0,1.49,20.33,151.56,151.56,0,0,0,11.75,39.05c1.35,3.14,2.9,6.18,4.41,9.24s3.2,6,5,9,3.58,5.82,5.41,8.71c.93,1.43,1.93,2.82,2.9,4.24s1.93,2.82,3,4.17a252.72,252.72,0,0,0,27,30.92l0,0c2.27,1.77,4.5,3.59,6.81,5.32l3.56,2.44c1.2.81,2.37,1.65,3.64,2.34l3.73,2.17.93.55,1,.47,1.94,1,1.94.95,1,.47,1,.41,4,1.63a77.88,77.88,0,0,0,16.76,4.17A52.84,52.84,0,0,0,230,372v-1.37Z"/><path d="M131,240a95.72,95.72,0,0,1,11.69-8.79,76.76,76.76,0,0,1,13.05-6.84,36.6,36.6,0,0,1,14.68-3,19.31,19.31,0,0,1,7.6,1.76,17.7,17.7,0,0,1,6.13,5,.94.94,0,0,1,.09.12h0a113.45,113.45,0,0,1,8.21,16.1c2.36,5.52,4.35,11.18,6.18,16.87s3.4,11.46,4.81,17.27S206.09,290.1,207,296c-1.62-5.74-3.29-11.45-5.07-17.12s-3.63-11.32-5.64-16.9-4.15-11.1-6.5-16.51a130.19,130.19,0,0,0-8-15.69l.1.13a15,15,0,0,0-5.08-4.18,17.18,17.18,0,0,0-6.48-1.65,36.81,36.81,0,0,0-13.79,2.35,88.58,88.58,0,0,0-13.12,5.93A137.28,137.28,0,0,0,131,240Z"/><path d="M122.79,64.54c2.93,3.39,5.72,6.89,8.47,10.42s5.47,7.1,8.07,10.75c5.24,7.27,10.2,14.76,14.81,22.47,2.27,3.88,4.46,7.81,6.52,11.82s3.93,8.12,5.6,12.33a77.74,77.74,0,0,1,4,13.07,33.42,33.42,0,0,1,.17,13.95,1.39,1.39,0,0,1-.53.81h0a57.48,57.48,0,0,1-8.42,5.15,82.61,82.61,0,0,1-9.07,3.76c-3.05,1.09-6.08,2.08-9,3.29a32.36,32.36,0,0,0-8,4.7A34.64,34.64,0,0,0,129,184a66.26,66.26,0,0,0-4.86,8.18A145.67,145.67,0,0,0,117,210a123.85,123.85,0,0,1,6-18.39,59,59,0,0,1,4.57-8.64,35.89,35.89,0,0,1,6.42-7.52,34.79,34.79,0,0,1,8.41-5.28c3-1.37,6.07-2.44,9.06-3.56a80.33,80.33,0,0,0,8.69-3.79,61.58,61.58,0,0,0,8-5l-.55.82A30.66,30.66,0,0,0,167.3,146a77,77,0,0,0-3.77-12.59c-1.6-4.11-3.44-8.14-5.36-12.14s-4.06-7.91-6.24-11.79c-4.36-7.77-9.06-15.35-14-22.83-2.45-3.72-4.9-7.46-7.45-11.14S125.41,68.16,122.79,64.54Z"/><path d="M201,346a70.87,70.87,0,0,0,7.67.66,50.81,50.81,0,0,0,7.62-.29,26,26,0,0,0,7.23-1.78,11.92,11.92,0,0,0,5.51-4.27l-.21.68c-.14-5-.16-10-.24-15l1.6,1.41a21.45,21.45,0,0,1-6.3-.2,12.84,12.84,0,0,1-3.15-1,8,8,0,0,1-2.82-2.19,9.12,9.12,0,0,1-1.61-3.13,11.46,11.46,0,0,1-.29-3.28,9.14,9.14,0,0,0-.27-2.53,10,10,0,0,0-1-2.32l.12.17a6,6,0,0,0-4.41-2.45c-1.84-.22-3.92.24-6.34.06-.3,0-.61-.08-.92-.13l-.47-.11a4.11,4.11,0,0,1-.59-.2,3.4,3.4,0,0,1-1.73-1.8,7.34,7.34,0,0,1-.35-3.78,20.3,20.3,0,0,1,.72-3.34,5.8,5.8,0,0,1,6-4l3.18.23,6.36.47c4.23.34,8.47.71,12.7,1.15-4.25.12-8.5.16-12.75.17h-6.38l-3.18,0a3.83,3.83,0,0,0-2.36.73,3.51,3.51,0,0,0-1.34,2,18,18,0,0,0-.48,2.92,5.56,5.56,0,0,0,.25,2.49c.14.27.25.37.42.43a.58.58,0,0,0,.17.05l.31.06a4.6,4.6,0,0,0,.66.07c1.83.12,4-.4,6.38-.23a8.84,8.84,0,0,1,3.61,1,9.79,9.79,0,0,1,2.83,2.42h0a.91.91,0,0,1,.11.16,13.12,13.12,0,0,1,1.34,3.05,12.28,12.28,0,0,1,.39,3.28,10.09,10.09,0,0,0,.2,2.54,6.1,6.1,0,0,0,1.05,2.06,6.94,6.94,0,0,0,4.2,2.17,19.79,19.79,0,0,0,5.38.24h.09a1.38,1.38,0,0,1,1.5,1.27.71.71,0,0,1,0,.14c-.08,5-.1,10-.24,15v.06a1.05,1.05,0,0,1-.21.62,13.92,13.92,0,0,1-6.73,4.77,27.6,27.6,0,0,1-7.83,1.41,48.25,48.25,0,0,1-7.8-.36A52.79,52.79,0,0,1,201,346Z"/><path d="M320.41,246.9,309,273s-1,19-3,28-10,23-10,23,4,22,3,29c0,15-13,23-23,24-4.44.44-11.63-4.23-18.26-9.57L260,369l-18,4-.5-228.5s31-7,67,21c18,11,23,17,23,17s11,3,14,7,52,117,52,117,4,9,2,18-35,60-58,60L340,409s-36-17-29-84c5-19,16-106,5-127"/><path d="M320.54,247,309.2,273.09l0-.08q-.36,6.66-1,13.31c-.42,4.43-.88,8.85-1.68,13.25A39.12,39.12,0,0,1,304.8,306c-.75,2.1-1.6,4.17-2.5,6.2-1.83,4.07-3.83,8-6,11.94l0-.23c.86,4.8,1.62,9.61,2.25,14.45q.46,3.63.77,7.29a40.39,40.39,0,0,1,.05,7.38V353l-.09,1.82-.05.91-.14.91-.31,1.8-.49,1.76a21.86,21.86,0,0,1-3.28,6.5,25.39,25.39,0,0,1-5.1,5.2,29.74,29.74,0,0,1-6.31,3.62,26.79,26.79,0,0,1-7,1.9,8.91,8.91,0,0,1-3.74-.26,20.63,20.63,0,0,1-3.44-1.3,46.94,46.94,0,0,1-6.24-3.69c-2-1.36-3.91-2.81-5.79-4.31a.56.56,0,0,1-.08-.78.56.56,0,0,1,.74-.1l2.27,1.56a.57.57,0,0,1,.14.78.6.6,0,0,1-.34.22l-18,4a.62.62,0,0,1-.73-.58l-.94-228.5v0a1,1,0,0,1,.81-1,63.61,63.61,0,0,1,18.32-.28,91.9,91.9,0,0,1,17.79,4c2.83,1.09,5.74,2,8.47,3.35,1.38.64,2.79,1.21,4.14,1.91l4,2.15c.67.36,1.35.7,2,1.08l1.93,1.2,3.86,2.42c2.52,1.69,4.94,3.53,7.41,5.29l-.11-.08c2.05,1.26,4.08,2.53,6.1,3.84s4,2.65,6,4,3.89,2.84,5.78,4.35a49.52,49.52,0,0,1,5.48,5l-.62-.39a59.43,59.43,0,0,1,7.49,2.65,31.29,31.29,0,0,1,3.61,1.82,12.79,12.79,0,0,1,3.35,2.68,4,4,0,0,1,.6.91l.52.93c.37.65.61,1.21.9,1.8l1.7,3.53,3.26,7.06c4.31,9.43,8.53,18.89,12.74,28.36q12.61,28.41,25.06,56.88l6.2,14.25,1.55,3.56a32,32,0,0,1,1.34,3.85,36.31,36.31,0,0,1,1.36,8,28,28,0,0,1-.07,4.09c-.08.68-.13,1.36-.27,2l-.19,1c-.08.35-.19.72-.3,1.08a48.17,48.17,0,0,1-3.43,7.27c-2.55,4.6-5.36,9-8.33,13.29a170.34,170.34,0,0,1-20,24.11,80,80,0,0,1-12.21,10,38.72,38.72,0,0,1-7.13,3.75,22.9,22.9,0,0,1-8.1,1.7l1.47-1.39-1.58,24.5v.05a1.36,1.36,0,0,1-1.45,1.27,1.25,1.25,0,0,1-.54-.15,32.44,32.44,0,0,1-5.14-3.39,48.75,48.75,0,0,1-4.49-4,60,60,0,0,1-7.52-9.31,75.76,75.76,0,0,1-9.59-21.72,108.38,108.38,0,0,1-3.55-23.38,150.77,150.77,0,0,1,.84-23.57l0-.16c1.31-5.09,2.23-10.37,3.13-15.61s1.65-10.54,2.35-15.83q2.13-15.85,3.4-31.83c.85-10.63,1.46-21.3,1.41-32,0-5.33-.22-10.67-.76-16s-1.37-10.64-3.64-15.45h0a.16.16,0,0,1,.07-.2.16.16,0,0,1,.2.07c2.4,4.85,3.28,10.24,3.95,15.53s.91,10.67,1,16c.23,10.71-.2,21.41-.87,32.08s-1.75,21.33-3.05,32q-1,8-2.18,15.9c-.84,5.3-1.7,10.58-3,15.85l0-.16a152.82,152.82,0,0,0-.61,23.23,106.63,106.63,0,0,0,3.62,22.84,73.31,73.31,0,0,0,9.39,20.92,56.53,56.53,0,0,0,7.24,8.84A44.68,44.68,0,0,0,336,404.7a31,31,0,0,0,4.64,3l-2,1.17,1.42-24.5a1.46,1.46,0,0,1,1.44-1.39h0a20.22,20.22,0,0,0,7-1.53A36.45,36.45,0,0,0,355.1,378a77.66,77.66,0,0,0,11.74-9.67,166.52,166.52,0,0,0,19.61-23.69c2.92-4.22,5.71-8.56,8.18-13a46.92,46.92,0,0,0,3.21-6.75c.07-.27.15-.51.22-.79l.16-.9a18.09,18.09,0,0,0,.24-1.8,24.94,24.94,0,0,0,.07-3.67,33.8,33.8,0,0,0-1.25-7.31,29.1,29.1,0,0,0-1.21-3.48l-1.55-3.56-6.19-14.25-24.84-57c-4.17-9.48-8.34-19-12.6-28.39l-3.22-7.05L346,193.23c-.27-.57-.55-1.19-.83-1.67l-.41-.77a2.59,2.59,0,0,0-.45-.72,10.29,10.29,0,0,0-2.69-2.13,31.35,31.35,0,0,0-3.32-1.7,59.93,59.93,0,0,0-7.13-2.56,1.25,1.25,0,0,1-.61-.38h0a32.48,32.48,0,0,0-2.43-2.39c-.88-.77-1.77-1.54-2.69-2.28-1.83-1.48-3.72-2.91-5.65-4.28s-3.9-2.71-5.88-4-4-2.57-6-3.82l-.05,0-.06,0c-2.42-1.73-4.78-3.54-7.25-5.21l-3.77-2.38-1.89-1.19c-.64-.37-1.31-.71-2-1.06L289,154.46c-1.31-.68-2.69-1.24-4-1.87-2.67-1.32-5.5-2.23-8.27-3.31a90.46,90.46,0,0,0-17.33-3.95l-2.21-.25-2.22-.15c-1.47-.12-2.95-.12-4.43-.13a49.45,49.45,0,0,0-8.75.72l.81-1L242.6,373l-.73-.58,18-4-.2,1-2.26-1.58.66-.88c1.85,1.5,3.75,2.94,5.7,4.29a45.36,45.36,0,0,0,6.09,3.64c2.1,1,4.37,1.86,6.61,1.5a25.91,25.91,0,0,0,6.79-1.8,28.9,28.9,0,0,0,6.12-3.47,24.54,24.54,0,0,0,4.94-5,21.4,21.4,0,0,0,3.18-6.24l.48-1.69.3-1.74.15-.87.05-.88.1-1.76v-.06a40.28,40.28,0,0,0,0-7.2c-.18-2.42-.44-4.84-.73-7.25q-.91-7.25-2.18-14.43a.37.37,0,0,1,0-.23c2.17-3.86,4.2-7.82,6-11.85.91-2,1.76-4.07,2.51-6.15a38.12,38.12,0,0,0,1.78-6.37c.82-4.35,1.31-8.77,1.74-13.19s.76-8.85,1-13.28a.24.24,0,0,1,0-.08l11.47-26.07a.15.15,0,1,1,.27.12Z"/><path class="cls-2" d="M243.46,305.35a42.22,42.22,0,0,1,8.13-1.43,18.1,18.1,0,0,1,8.38,1,8.65,8.65,0,0,1,1.91,1.26,6.56,6.56,0,0,1,1.39,1.9,14.16,14.16,0,0,1,1,4.27,35,35,0,0,1-.27,8.44,45.42,45.42,0,0,1-2,8.23,27,27,0,0,1-4,7.55,21.92,21.92,0,0,1-6.41,5.76,17.08,17.08,0,0,1-8.13,2.29.15.15,0,0,1-.15-.15.15.15,0,0,1,.11-.15,23.24,23.24,0,0,0,7-3.74,25,25,0,0,0,5.15-5.75,43.2,43.2,0,0,0,3.67-6.89,38.53,38.53,0,0,0,2.38-7.55,33.33,33.33,0,0,0,.68-7.89,12.72,12.72,0,0,0-.66-3.72,4.84,4.84,0,0,0-.94-1.44,6.26,6.26,0,0,0-1.45-1.07,16.85,16.85,0,0,0-7.67-1.45,45,45,0,0,0-8.09.8h0a.15.15,0,0,1-.17-.12A.16.16,0,0,1,243.46,305.35Z"/><path class="cls-2" d="M259.45,320.64a11.72,11.72,0,0,0-6.55.15,4.18,4.18,0,0,0-2.25,1.61,2.27,2.27,0,0,0,.32,2.19,5.78,5.78,0,0,0,2,1.93,8.12,8.12,0,0,0,2.46.94,9.16,9.16,0,0,0,5.93-1.06.16.16,0,0,1,.22.07.15.15,0,0,1,0,.13,6.77,6.77,0,0,1-6.46,3.84,6.42,6.42,0,0,1-3.9-1.52,9.06,9.06,0,0,1-2.43-3.26,5.58,5.58,0,0,1-.5-2.1,3.52,3.52,0,0,1,.68-2.28,5.93,5.93,0,0,1,3.51-1.94,11.91,11.91,0,0,1,7,1,.15.15,0,0,1,.07.2A.15.15,0,0,1,259.45,320.64Z"/><path class="cls-2" d="M271.87,239.92a63.41,63.41,0,0,1,6.83-9.6,29.54,29.54,0,0,1,4.36-4.14,13.67,13.67,0,0,1,2.69-1.63,7.12,7.12,0,0,1,1.57-.56,13.58,13.58,0,0,1,1.48-.33c1.88-.38,3.79-.87,5.83-1.17a13.93,13.93,0,0,1,6.35.44,11.83,11.83,0,0,1,5.3,3.62,15.45,15.45,0,0,1,2.85,5.38.15.15,0,0,1-.1.19.16.16,0,0,1-.16,0h0a33.31,33.31,0,0,0-4.06-4,12.06,12.06,0,0,0-4.66-2.25c-3.29-.75-7-.3-11,.22a11.28,11.28,0,0,0-1.39.2,5,5,0,0,0-1.21.33,12.34,12.34,0,0,0-2.4,1.22,28,28,0,0,0-4.4,3.57,70.84,70.84,0,0,0-7.65,8.73h0a.15.15,0,0,1-.25-.17Z"/></g></g></svg>